<svg xmlns="http://www.w3.org/2000/svg" width="69" height="56" fill="none"><g fill="#fff" clip-path="url(#a)"><path d="m39.1501 16.8698-1.31-1c-.2048-.1658-.4667-.2441-.7288-.2179-.2622.0263-.5034.1549-.6712.3579l-18.13 20.82.28.31 4.49-4.14c-.1497-.0602-.2735-.171-.35-.313-.0764-.142-.1007-.3063-.0686-.4644.032-.1581.1185-.2999.2443-.4009.1258-.1009.283-.1546.4443-.1517.1454 0 .287.0466.404.133.117.0864.2032.208.246.347l5.92-5.49c.0906-.0731.2035-.1129.32-.1129.1164 0 .2293.0398.32.1129l.3.22c.1015.0727.2265.1049.3505.0901.124-.0148.2379-.0755.3195-.1701l7.74-8.68c.0822-.0862.145-.189.1839-.3016.039-.1126.0533-.2323.0419-.3508-.0114-.1186-.0482-.2334-.1078-.3365-.0597-.1031-.1409-.1922-.238-.2611Z"/><path d="M47.67 22.73c-3.9675 2.823-8.4121 4.9064-13.12 6.15-4.6725 1.1883-9.4538 1.8986-14.27 2.12.097.7102.2714 1.4077.52 2.08 2.72 2.46 23.2-1.74 27.2-6.6.85-1.01-.33-3.75-.33-3.75ZM23.35 33c-.1345 0-.2659-.0399-.3778-.1146-.1118-.0747-.1989-.1809-.2504-.3052-.0515-.1243-.0649-.261-.0387-.3929.0262-.1319.091-.2531.1861-.3482.0951-.0951.2163-.1598.3482-.1861.1319-.0262.2686-.0127.3929.0387.1242.0515.2304.1387.3051.2505.0747.1118.1146.2433.1146.3778.0014.0897-.0153.1787-.049.2618-.0337.0831-.0837.1586-.1471.222-.0634.0634-.1389.1135-.2221.1472-.0831.0337-.1721.0503-.2618.049ZM4.00006 21.2899l.16-.69 2.6.59c.2145.3962.34713.8315.39 1.28.04962.4751.0192.9551-.09 1.42-.12945.6453-.426 1.2453-.86 1.74-.41292.4671-.94533.8129-1.54 1-.61291.189-1.2648.2132-1.89.07-.62658-.1353-1.20414-.4396-1.67-.88-.458736-.423-.788139-.9673-.950005-1.57-.1795656-.6545-.1795656-1.3454 0-2 .107478-.4899.300427-.957.57-1.38.255139-.3846.597845-.7034 1.000005-.93l.35999.55c-.34469.2117-.64057.494-.86811.8284-.227541.3344-.381558.7133-.451885 1.1116-.124013.5174-.113686 1.0578.03 1.57.13437.4864.400905.926.770005 1.27.37937.3668.85403.6197 1.37.73.50032.1405 1.02967.1405 1.53 0 .47928-.1582.90977-.4371 1.25-.81.34964-.4026.59059-.888.7-1.41.16453-.6331.12248-1.3023-.12-1.91l-2.29-.58ZM9.65992 15.0002l-2.33 3.11 1 1.79-.46.62-3.7-6.75.43-.59 7.52998 1.62-.47.62-1.99998-.42Zm-.66-.16-4-.9 2 3.59 2-2.69ZM9 8.5501l.6-.45 3.81 5.1 3.14-2.35.38.51-3.73 2.79-4.2-5.6ZM15.3 4.38008l.67-.3 2.64 5.78 3.57-1.62.26.58-4.24 1.93002-2.9-6.37002ZM28.48 6.67978l.15.63-4.82 1.13001-1.6-6.82L26.89.529785l.14.620005-4 .93.57 2.42 3.52-.83.15.62-3.53.82.6 2.52999 4.14-.96ZM35.3501 6.93021l-1.67-2.2c-.1865.01032-.3735.01032-.56 0l-1.88.06.07 2.22h-.74l-.23-6.9999972 2.66-.01c.7521-.0694581 1.5041.1327532 2.12.5700002.2595.208994.4682.474207.6102.775637.1421.30142.2138.63117.2098.96436.0292.49419-.1005.98476-.37 1.4-.2874.39856-.6934.69607-1.16.85l1.75 2.34-.81.03Zm-.7-3.29c.1797-.16465.3192-.36843.4076-.59557.0885-.22715.1235-.47159.1024-.71443.0051-.24413-.0453-.48623-.1475-.70799-.1022-.22176-.2535-.41736-.4425-.57201-.4609-.312518-1.0152-.457259-1.57-.409997l-1.9.07.12 3.499997 1.86-.06c.5672.02099 1.1234-.1597 1.57-.51ZM40.6401 5.07l-.36 2.39-.73-.11.37-2.35-2.07-5 .78.12 1.77 4.26 3-3.53.7.15-3.46 4.07ZM50.53 4.65018l.8701 1.13-.38.3-.87-1.16-.5501 1.31-.42-.18.5601-1.31-1.4401.19v-.48l1.4201-.16-.8801-1.13.39-.3.77 1.14.5401-1.32.43.18-.5101 1.34 1.4401-.2v.49l-1.3701.16ZM53.8699 12.7099c-.2361-.3641-.3834-.7785-.43-1.21l.59-.26c.0443.3964.1739.7785.38 1.12.2234.3829.5149.7218.86 1 .3565.3413.8113.5617 1.3.63.1766.0164.3545-.0106.5184-.0785.1638-.068.3085-.1749.4216-.3115.083-.0915.1462-.1991.1858-.3161.0395-.1169.0546-.2408.0442-.3639-.033-.2437-.1146-.4783-.24-.69-.1879-.3069-.3915-.604-.61-.89-.2662-.3488-.5068-.7164-.72-1.1-.1629-.28706-.2522-.61-.26-.93998-.0007-.37058.1386-.72774.39-1 .218-.26388.5055-.46135.83-.57.3626-.10474.7475-.10474 1.11 0 .4672.15277.899.39759 1.27.72.3079.25607.5803.552.81.88.2125.30416.3714.64235.47.99998l-.57.3c-.0994-.3333-.2477-.65011-.44-.93998-.1915-.25886-.4168-.49092-.67-.69-.3511-.33976-.8045-.55417-1.29-.61-.1783-.01492-.3576.01474-.5217.08631-.1641.07157-.3078.1828-.4183.32369-.085.09008-.1496.19749-.1893.31485-.0397.11737-.0536.24192-.0407.36515.0234.25217.1056.49534.24.70998.14.23.34.53.61.89.2677.3408.5084.7019.72 1.08.1664.2862.2592.6092.27.94.0007.3706-.1386.7278-.39 1-.2187.2675-.5106.4656-.84.57-.3619.1093-.748.1093-1.11 0-.4703-.1523-.9055-.3971-1.28-.72-.4036-.3513-.7421-.7711-1-1.24ZM63.93 14.1698l-1.41-2 .52-.37 3.25 4.64-.52.37-1.41-2-5.22 3.65-.42-.61 5.21-3.68ZM61.69 22.39c.1785-.6044.5253-1.1455 1-1.56.4643-.4159 1.0299-.7021 1.64-.83.6219-.1428 1.2704-.1186 1.88.07.5883.1945 1.1157.5392 1.53 1 .4308.4956.7239 1.0956.85 1.74.1656.6326.1656 1.2973 0 1.93-.1835.6021-.5295 1.1419-1 1.56-.4772.427-1.0567.7233-1.6823.86-.6256.1367-1.2759.1091-1.8877-.08-.5929-.1851-1.1226-.5313-1.53-1-.4289-.493-.7218-1.0893-.85-1.73-.1528-.6467-.1356-1.322.05-1.96ZM63 25.57c.3339.3802.7665.6606 1.25.81.4983.1445 1.0249.1617 1.5316.0498.5067-.1118.9772-.349 1.3684-.6898.3691-.3396.6416-.7709.79-1.25.1394-.5059.1531-1.0383.0398-1.5507-.1133-.5124-.3501-.9893-.6898-1.3893-.3486-.3821-.7945-.6621-1.29-.81-.5046-.134-1.0354-.134-1.54 0-.5092.0977-.9805.3368-1.36.69-.3725.3408-.6455.7762-.79 1.26-.1358.5077-.1358 1.0422 0 1.55.1095.4961.3474.9547.69 1.33ZM60.93 33.9999l2.59-1c0-.18.06-.36.11-.55l.49-1.81-2.12-.55.19-.71 6.76 1.81-.68 2.53c-.1532.7382-.5645 1.3977-1.16 1.86-.2737.19-.5876.3142-.9172.3628-.3296.0485-.666.0202-.9828-.0828-.4826-.1047-.915-.3708-1.2259-.7544-.3109-.3836-.4817-.8618-.4841-1.3556l-2.76 1 .19-.75Zm3.35.28c.1171.2125.276.3991.4672.5487.1911.1495.4105.2589.6449.3215.2345.0625.4792.0771.7194.0427.2402-.0344.471-.117.6785-.2429.4414-.3545.7426-.8542.85-1.41l.48-1.8-3.39-.91-.48 1.8c-.1845.5364-.1739 1.1207.03 1.65ZM57.3401 40.4401l-.51-.39 3-3.95 5.58 4.23-2.9 3.83-.51-.39 2.45-3.23-2-1.51-2.19 2.89-.5-.38 2.24-2.89-2.07-1.57-2.59 3.36ZM55.0001 48.4099l-1.43.08v-.48l1.43-.01-.77-1.19.39-.25.76 1.2.62-1.34.43.23-.68 1.26 1.43-.08v.49h-1.45l.77 1.19-.39.25-.76-1.2-.66 1.3-.42-.24.73-1.21ZM42 47.6099l1.21.67c.2028-.3897.486-.732.8307-1.0043s.7432-.4685 1.1693-.5757c.3974-.1239.8154-.1681 1.23-.13.3597.0276.7052.152 1 .36.2664.2009.4625.4809.56.8.1205.3948.0993.8192-.06 1.2-.2509.5174-.5892.9876-1 1.39.3297.1772.6355.3956.91.65.1886.1949.329.4312.41.69.0512.2018.0544.4127.0093.616-.0452.2032-.1374.3929-.2693.554-.267.3847-.6653.6585-1.12.77-.3993.1523-.8407.1523-1.24 0-.1776-.0764-.335-.1929-.4599-.3403-.125-.1475-.214-.322-.2601-.5097-.1049-.3301-.0798-.6877.07-1 .2295-.4546.53-.8698.89-1.23l-2.41-1.34c-.092.4709-.1122.953-.06 1.43h-.61c-.0411-.5874.0267-1.1773.2-1.74l-1.26-.7.26-.56Zm1.74 1 2.65 1.47c.3473-.3316.6348-.7207.85-1.15.1099-.2899.1099-.61 0-.9-.0454-.1732-.1331-.3325-.2553-.4634-.1222-.1309-.275-.2294-.4447-.2866-.4152-.1402-.8649-.1402-1.28 0-.3393.0895-.6547.2523-.9243.4769-.2695.2246-.4865.5056-.6357.8231l.04.03Zm3.76 4c.0653-.1105.1063-.2337.1201-.3613.0138-.1277.0001-.2568-.0401-.3787-.0613-.1975-.1713-.3763-.32-.52-.2546-.2147-.5331-.3993-.83-.55-.3032.2998-.5685.6357-.79 1-.1209.2272-.1496.4922-.08.74.0317.1144.0873.2208.1632.3122.0758.0913.1702.1656.2768.2178.2546.096.5354.096.79 0 .2719-.0725.5092-.239.67-.47l.04.01ZM29.8101 55.3198l.14-7h.71l-.11 5.6 2.84-4.66h.35l2.66 4.74.1-5.57h.71l-.13 7h-.61l-2.94-5.23-3.11 5.13-.61-.01ZM26.33 48.0001c.4573.4358.7845.9901.9452 1.6011.1607.6109.1485 1.2545-.0352 1.8589-.1643.6189-.4925 1.182-.95 1.63-.4446.437-1.0021.7417-1.61.88-.6413.1447-1.3089.124-1.94-.06-.629-.1536-1.2077-.4671-1.68-.91-.4505-.4303-.7725-.9773-.93-1.58-.1538-.623-.1424-1.2754.0329-1.8927.1754-.6173.5087-1.1782.9671-1.6273.4367-.4359.9823-.7467 1.58-.9.638-.1443 1.3022-.1236 1.93.06.6355.1611 1.218.4851 1.69.94Zm-3.41-.35c-.4892.1139-.9363.3634-1.29.72-.3684.3669-.6309.8264-.76 1.33-.1395.5005-.1395 1.0295 0 1.53.1179.4869.371.9306.73 1.28.3765.3682.8414.6334 1.35.77.5085.1295 1.0414.1295 1.55 0 .4895-.1204.9382-.3689 1.3-.72.3664-.3684.6286-.8273.76-1.33.1398-.5038.1398-1.0362 0-1.54-.128-.4851-.3835-.927-.74-1.28-.3785-.3687-.8477-.6309-1.36-.76-.5039-.1393-1.0361-.1393-1.54 0ZM15.35 43l.27 2.75c.1716.0733.3385.1568.5.25l1.63.94 1.1-1.94.65.37L16 51.4l-2.28-1.31c-.6739-.3385-1.2055-.9056-1.5-1.6-.1087-.3128-.1453-.6461-.1073-.9751.0381-.329.15-.6451.3273-.9249.2325-.4382.601-.7892 1.05-1 .4561-.1889.9606-.2274 1.44-.11l-.29-2.94.71.46Zm-1.14 3.16c-.2348.059-.4554.1647-.6485.3108-.193.1462-.3546.3298-.4751.5399-.1204.21-.1972.4422-.2258.6827-.0286.2404-.0084.4842.0594.7166.2344.5176.6408.9381 1.15 1.19l1.61.93 1.75-3-1.61-.93c-.4627-.3467-1.0325-.5201-1.61-.49v.05ZM9.43 38.3099l.45-.45 3.45 3.55-5 4.88-3.33-3.44.46-.45 2.83 2.91 1.71-1.73-2.48-2.58.48-.46 2.53 2.6 1.86-1.81-2.96-3.02ZM2.00011 34.38l.24-1.38.47.07-.27 1.42 1.33-.49.16.44-1.35.46 1.11.94-.32.36-1.07-1-.25 1.42-.48-.09.28-1.42-1.340003.48-.15-.39 1.340003-.47-1.110003-.93.33-.36 1.080003.94Z"/></g><defs><clipPath id="a"><path fill="#fff" d="M0 0h68.93v55.46H0z"/></clipPath></defs></svg>